<?xml version="1.0" encoding="us-ascii" standalone="no"?><svg xmlns="http://www.w3.org/2000/svg" xmlns:xlink="http://www.w3.org/1999/xlink" contentStyleType="text/css" height="360px" preserveAspectRatio="none" style="width:3365px;height:360px;background:#FFFFFF;" version="1.1" viewBox="0 0 3365 360" width="3365px" zoomAndPan="magnify"><defs/><g><!--class AbstractFactory--><g id="elem_AbstractFactory"><rect codeLine="1" fill="#F1F1F1" height="80.5938" id="AbstractFactory" rx="2.5" ry="2.5" style="stroke:#181818;stroke-width:0.5;" width="306" x="2081" y="7"/><ellipse cx="2171.25" cy="23" fill="#ADD1B2" rx="11" ry="11" style="stroke:#181818;stroke-width:1.0;"/><path d="M2173.5938,18.6719 C2172.6563,18.2344 2172.0625,18.0938 2171.1875,18.0938 C2168.5625,18.0938 2166.5625,20.1719 2166.5625,22.8906 L2166.5625,24.0156 C2166.5625,26.5938 2168.6719,28.4844 2171.5625,28.4844 C2172.7813,28.4844 2173.9375,28.1875 2174.6875,27.6406 C2175.2656,27.2344 2175.5938,26.7813 2175.5938,26.3906 C2175.5938,25.9375 2175.2031,25.5469 2174.7344,25.5469 C2174.5156,25.5469 2174.3125,25.625 2174.125,25.8125 C2173.6719,26.2969 2173.6719,26.2969 2173.4844,26.3906 C2173.0625,26.6563 2172.375,26.7813 2171.6094,26.7813 C2169.5625,26.7813 2168.2656,25.6875 2168.2656,23.9844 L2168.2656,22.8906 C2168.2656,21.1094 2169.5156,19.7969 2171.25,19.7969 C2171.8281,19.7969 2172.4375,19.9531 2172.9063,20.2031 C2173.3906,20.4844 2173.5625,20.7031 2173.6563,21.1094 C2173.7188,21.5156 2173.75,21.6406 2173.8906,21.7656 C2174.0313,21.9063 2174.2656,22.0156 2174.4844,22.0156 C2174.75,22.0156 2175.0156,21.875 2175.1875,21.6563 C2175.2969,21.5 2175.3281,21.3125 2175.3281,20.8906 L2175.3281,19.4688 C2175.3281,19.0313 2175.3125,18.9063 2175.2188,18.75 C2175.0625,18.4844 2174.7813,18.3438 2174.4844,18.3438 C2174.1875,18.3438 2173.9844,18.4375 2173.7656,18.75 L2173.5938,18.6719 Z " fill="#000000"/><text fill="#000000" font-family="sans-serif" font-size="14" lengthAdjust="spacing" textLength="117" x="2191.75" y="27.8467">AbstractFactory</text><line style="stroke:#181818;stroke-width:0.5;" x1="2082" x2="2386" y1="39" y2="39"/><line style="stroke:#181818;stroke-width:0.5;" x1="2082" x2="2386" y1="47" y2="47"/><ellipse cx="2092" cy="60.6484" fill="#84BE84" rx="3" ry="3" style="stroke:#038048;stroke-width:1.0;"/><text fill="#000000" font-family="sans-serif" font-size="14" lengthAdjust="spacing" textLength="253" x="2101" y="63.9951">create_graphic(): AbstractGraphics</text><ellipse cx="2092" cy="76.9453" fill="#84BE84" rx="3" ry="3" style="stroke:#038048;stroke-width:1.0;"/><text fill="#000000" font-family="sans-serif" font-size="14" lengthAdjust="spacing" textLength="280" x="2101" y="80.292">calculate_statistic(): AbstractStatistics</text></g><!--class ConcreteFactory1--><g id="elem_ConcreteFactory1"><rect codeLine="6" fill="#F1F1F1" height="80.5938" id="ConcreteFactory1" rx="2.5" ry="2.5" style="stroke:#181818;stroke-width:0.5;" width="306" x="2711" y="148"/><ellipse cx="2794.75" cy="164" fill="#ADD1B2" rx="11" ry="11" style="stroke:#181818;stroke-width:1.0;"/><path d="M2797.0938,159.6719 C2796.1563,159.2344 2795.5625,159.0938 2794.6875,159.0938 C2792.0625,159.0938 2790.0625,161.1719 2790.0625,163.8906 L2790.0625,165.0156 C2790.0625,167.5938 2792.1719,169.4844 2795.0625,169.4844 C2796.2813,169.4844 2797.4375,169.1875 2798.1875,168.6406 C2798.7656,168.2344 2799.0938,167.7813 2799.0938,167.3906 C2799.0938,166.9375 2798.7031,166.5469 2798.2344,166.5469 C2798.0156,166.5469 2797.8125,166.625 2797.625,166.8125 C2797.1719,167.2969 2797.1719,167.2969 2796.9844,167.3906 C2796.5625,167.6563 2795.875,167.7813 2795.1094,167.7813 C2793.0625,167.7813 2791.7656,166.6875 2791.7656,164.9844 L2791.7656,163.8906 C2791.7656,162.1094 2793.0156,160.7969 2794.75,160.7969 C2795.3281,160.7969 2795.9375,160.9531 2796.4063,161.2031 C2796.8906,161.4844 2797.0625,161.7031 2797.1563,162.1094 C2797.2188,162.5156 2797.25,162.6406 2797.3906,162.7656 C2797.5313,162.9063 2797.7656,163.0156 2797.9844,163.0156 C2798.25,163.0156 2798.5156,162.875 2798.6875,162.6563 C2798.7969,162.5 2798.8281,162.3125 2798.8281,161.8906 L2798.8281,160.4688 C2798.8281,160.0313 2798.8125,159.9063 2798.7188,159.75 C2798.5625,159.4844 2798.2813,159.3438 2797.9844,159.3438 C2797.6875,159.3438 2797.4844,159.4375 2797.2656,159.75 L2797.0938,159.6719 Z " fill="#000000"/><text fill="#000000" font-family="sans-serif" font-size="14" lengthAdjust="spacing" textLength="130" x="2815.25" y="168.8467">ConcreteFactory1</text><line style="stroke:#181818;stroke-width:0.5;" x1="2712" x2="3016" y1="180" y2="180"/><line style="stroke:#181818;stroke-width:0.5;" x1="2712" x2="3016" y1="188" y2="188"/><ellipse cx="2722" cy="201.6484" fill="#84BE84" rx="3" ry="3" style="stroke:#038048;stroke-width:1.0;"/><text fill="#000000" font-family="sans-serif" font-size="14" lengthAdjust="spacing" textLength="253" x="2731" y="204.9951">create_graphic(): AbstractGraphics</text><ellipse cx="2722" cy="217.9453" fill="#84BE84" rx="3" ry="3" style="stroke:#038048;stroke-width:1.0;"/><text fill="#000000" font-family="sans-serif" font-size="14" lengthAdjust="spacing" textLength="280" x="2731" y="221.292">calculate_statistic(): AbstractStatistics</text></g><!--class ConcreteFactory2--><g id="elem_ConcreteFactory2"><rect codeLine="11" fill="#F1F1F1" height="80.5938" id="ConcreteFactory2" rx="2.5" ry="2.5" style="stroke:#181818;stroke-width:0.5;" width="306" x="3052" y="148"/><ellipse cx="3136.25" cy="164" fill="#ADD1B2" rx="11" ry="11" style="stroke:#181818;stroke-width:1.0;"/><path d="M3138.5938,159.6719 C3137.6563,159.2344 3137.0625,159.0938 3136.1875,159.0938 C3133.5625,159.0938 3131.5625,161.1719 3131.5625,163.8906 L3131.5625,165.0156 C3131.5625,167.5938 3133.6719,169.4844 3136.5625,169.4844 C3137.7813,169.4844 3138.9375,169.1875 3139.6875,168.6406 C3140.2656,168.2344 3140.5938,167.7813 3140.5938,167.3906 C3140.5938,166.9375 3140.2031,166.5469 3139.7344,166.5469 C3139.5156,166.5469 3139.3125,166.625 3139.125,166.8125 C3138.6719,167.2969 3138.6719,167.2969 3138.4844,167.3906 C3138.0625,167.6563 3137.375,167.7813 3136.6094,167.7813 C3134.5625,167.7813 3133.2656,166.6875 3133.2656,164.9844 L3133.2656,163.8906 C3133.2656,162.1094 3134.5156,160.7969 3136.25,160.7969 C3136.8281,160.7969 3137.4375,160.9531 3137.9063,161.2031 C3138.3906,161.4844 3138.5625,161.7031 3138.6563,162.1094 C3138.7188,162.5156 3138.75,162.6406 3138.8906,162.7656 C3139.0313,162.9063 3139.2656,163.0156 3139.4844,163.0156 C3139.75,163.0156 3140.0156,162.875 3140.1875,162.6563 C3140.2969,162.5 3140.3281,162.3125 3140.3281,161.8906 L3140.3281,160.4688 C3140.3281,160.0313 3140.3125,159.9063 3140.2188,159.75 C3140.0625,159.4844 3139.7813,159.3438 3139.4844,159.3438 C3139.1875,159.3438 3138.9844,159.4375 3138.7656,159.75 L3138.5938,159.6719 Z " fill="#000000"/><text fill="#000000" font-family="sans-serif" font-size="14" lengthAdjust="spacing" textLength="129" x="3156.75" y="168.8467">ConcreteFactory2</text><line style="stroke:#181818;stroke-width:0.5;" x1="3053" x2="3357" y1="180" y2="180"/><line style="stroke:#181818;stroke-width:0.5;" x1="3053" x2="3357" y1="188" y2="188"/><ellipse cx="3063" cy="201.6484" fill="#84BE84" rx="3" ry="3" style="stroke:#038048;stroke-width:1.0;"/><text fill="#000000" font-family="sans-serif" font-size="14" lengthAdjust="spacing" textLength="253" x="3072" y="204.9951">create_graphic(): AbstractGraphics</text><ellipse cx="3063" cy="217.9453" fill="#84BE84" rx="3" ry="3" style="stroke:#038048;stroke-width:1.0;"/><text fill="#000000" font-family="sans-serif" font-size="14" lengthAdjust="spacing" textLength="280" x="3072" y="221.292">calculate_statistic(): AbstractStatistics</text></g><!--class ConcreteFactory3--><g id="elem_ConcreteFactory3"><rect codeLine="16" fill="#F1F1F1" height="80.5938" id="ConcreteFactory3" rx="2.5" ry="2.5" style="stroke:#181818;stroke-width:0.5;" width="306" x="2370" y="148"/><ellipse cx="2453.75" cy="164" fill="#ADD1B2" rx="11" ry="11" style="stroke:#181818;stroke-width:1.0;"/><path d="M2456.0938,159.6719 C2455.1563,159.2344 2454.5625,159.0938 2453.6875,159.0938 C2451.0625,159.0938 2449.0625,161.1719 2449.0625,163.8906 L2449.0625,165.0156 C2449.0625,167.5938 2451.1719,169.4844 2454.0625,169.4844 C2455.2813,169.4844 2456.4375,169.1875 2457.1875,168.6406 C2457.7656,168.2344 2458.0938,167.7813 2458.0938,167.3906 C2458.0938,166.9375 2457.7031,166.5469 2457.2344,166.5469 C2457.0156,166.5469 2456.8125,166.625 2456.625,166.8125 C2456.1719,167.2969 2456.1719,167.2969 2455.9844,167.3906 C2455.5625,167.6563 2454.875,167.7813 2454.1094,167.7813 C2452.0625,167.7813 2450.7656,166.6875 2450.7656,164.9844 L2450.7656,163.8906 C2450.7656,162.1094 2452.0156,160.7969 2453.75,160.7969 C2454.3281,160.7969 2454.9375,160.9531 2455.4063,161.2031 C2455.8906,161.4844 2456.0625,161.7031 2456.1563,162.1094 C2456.2188,162.5156 2456.25,162.6406 2456.3906,162.7656 C2456.5313,162.9063 2456.7656,163.0156 2456.9844,163.0156 C2457.25,163.0156 2457.5156,162.875 2457.6875,162.6563 C2457.7969,162.5 2457.8281,162.3125 2457.8281,161.8906 L2457.8281,160.4688 C2457.8281,160.0313 2457.8125,159.9063 2457.7188,159.75 C2457.5625,159.4844 2457.2813,159.3438 2456.9844,159.3438 C2456.6875,159.3438 2456.4844,159.4375 2456.2656,159.75 L2456.0938,159.6719 Z " fill="#000000"/><text fill="#000000" font-family="sans-serif" font-size="14" lengthAdjust="spacing" textLength="130" x="2474.25" y="168.8467">ConcreteFactory3</text><line style="stroke:#181818;stroke-width:0.5;" x1="2371" x2="2675" y1="180" y2="180"/><line style="stroke:#181818;stroke-width:0.5;" x1="2371" x2="2675" y1="188" y2="188"/><ellipse cx="2381" cy="201.6484" fill="#84BE84" rx="3" ry="3" style="stroke:#038048;stroke-width:1.0;"/><text fill="#000000" font-family="sans-serif" font-size="14" lengthAdjust="spacing" textLength="253" x="2390" y="204.9951">create_graphic(): AbstractGraphics</text><ellipse cx="2381" cy="217.9453" fill="#84BE84" rx="3" ry="3" style="stroke:#038048;stroke-width:1.0;"/><text fill="#000000" font-family="sans-serif" font-size="14" lengthAdjust="spacing" textLength="280" x="2390" y="221.292">calculate_statistic(): AbstractStatistics</text></g><!--class ConcreteFactory4--><g id="elem_ConcreteFactory4"><rect codeLine="21" fill="#F1F1F1" height="80.5938" id="ConcreteFactory4" rx="2.5" ry="2.5" style="stroke:#181818;stroke-width:0.5;" width="306" x="689" y="148"/><ellipse cx="773.25" cy="164" fill="#ADD1B2" rx="11" ry="11" style="stroke:#181818;stroke-width:1.0;"/><path d="M775.5938,159.6719 C774.6563,159.2344 774.0625,159.0938 773.1875,159.0938 C770.5625,159.0938 768.5625,161.1719 768.5625,163.8906 L768.5625,165.0156 C768.5625,167.5938 770.6719,169.4844 773.5625,169.4844 C774.7813,169.4844 775.9375,169.1875 776.6875,168.6406 C777.2656,168.2344 777.5938,167.7813 777.5938,167.3906 C777.5938,166.9375 777.2031,166.5469 776.7344,166.5469 C776.5156,166.5469 776.3125,166.625 776.125,166.8125 C775.6719,167.2969 775.6719,167.2969 775.4844,167.3906 C775.0625,167.6563 774.375,167.7813 773.6094,167.7813 C771.5625,167.7813 770.2656,166.6875 770.2656,164.9844 L770.2656,163.8906 C770.2656,162.1094 771.5156,160.7969 773.25,160.7969 C773.8281,160.7969 774.4375,160.9531 774.9063,161.2031 C775.3906,161.4844 775.5625,161.7031 775.6563,162.1094 C775.7188,162.5156 775.75,162.6406 775.8906,162.7656 C776.0313,162.9063 776.2656,163.0156 776.4844,163.0156 C776.75,163.0156 777.0156,162.875 777.1875,162.6563 C777.2969,162.5 777.3281,162.3125 777.3281,161.8906 L777.3281,160.4688 C777.3281,160.0313 777.3125,159.9063 777.2188,159.75 C777.0625,159.4844 776.7813,159.3438 776.4844,159.3438 C776.1875,159.3438 775.9844,159.4375 775.7656,159.75 L775.5938,159.6719 Z " fill="#000000"/><text fill="#000000" font-family="sans-serif" font-size="14" lengthAdjust="spacing" textLength="129" x="793.75" y="168.8467">ConcreteFactory4</text><line style="stroke:#181818;stroke-width:0.5;" x1="690" x2="994" y1="180" y2="180"/><line style="stroke:#181818;stroke-width:0.5;" x1="690" x2="994" y1="188" y2="188"/><ellipse cx="700" cy="201.6484" fill="#84BE84" rx="3" ry="3" style="stroke:#038048;stroke-width:1.0;"/><text fill="#000000" font-family="sans-serif" font-size="14" lengthAdjust="spacing" textLength="253" x="709" y="204.9951">create_graphic(): AbstractGraphics</text><ellipse cx="700" cy="217.9453" fill="#84BE84" rx="3" ry="3" style="stroke:#038048;stroke-width:1.0;"/><text fill="#000000" font-family="sans-serif" font-size="14" lengthAdjust="spacing" textLength="280" x="709" y="221.292">calculate_statistic(): AbstractStatistics</text></g><!--class ConcreteFactory5--><g id="elem_ConcreteFactory5"><rect codeLine="26" fill="#F1F1F1" height="80.5938" id="ConcreteFactory5" rx="2.5" ry="2.5" style="stroke:#181818;stroke-width:0.5;" width="306" x="7" y="148"/><ellipse cx="90.75" cy="164" fill="#ADD1B2" rx="11" ry="11" style="stroke:#181818;stroke-width:1.0;"/><path d="M93.0938,159.6719 C92.1563,159.2344 91.5625,159.0938 90.6875,159.0938 C88.0625,159.0938 86.0625,161.1719 86.0625,163.8906 L86.0625,165.0156 C86.0625,167.5938 88.1719,169.4844 91.0625,169.4844 C92.2813,169.4844 93.4375,169.1875 94.1875,168.6406 C94.7656,168.2344 95.0938,167.7813 95.0938,167.3906 C95.0938,166.9375 94.7031,166.5469 94.2344,166.5469 C94.0156,166.5469 93.8125,166.625 93.625,166.8125 C93.1719,167.2969 93.1719,167.2969 92.9844,167.3906 C92.5625,167.6563 91.875,167.7813 91.1094,167.7813 C89.0625,167.7813 87.7656,166.6875 87.7656,164.9844 L87.7656,163.8906 C87.7656,162.1094 89.0156,160.7969 90.75,160.7969 C91.3281,160.7969 91.9375,160.9531 92.4063,161.2031 C92.8906,161.4844 93.0625,161.7031 93.1563,162.1094 C93.2188,162.5156 93.25,162.6406 93.3906,162.7656 C93.5313,162.9063 93.7656,163.0156 93.9844,163.0156 C94.25,163.0156 94.5156,162.875 94.6875,162.6563 C94.7969,162.5 94.8281,162.3125 94.8281,161.8906 L94.8281,160.4688 C94.8281,160.0313 94.8125,159.9063 94.7188,159.75 C94.5625,159.4844 94.2813,159.3438 93.9844,159.3438 C93.6875,159.3438 93.4844,159.4375 93.2656,159.75 L93.0938,159.6719 Z " fill="#000000"/><text fill="#000000" font-family="sans-serif" font-size="14" lengthAdjust="spacing" textLength="130" x="111.25" y="168.8467">ConcreteFactory5</text><line style="stroke:#181818;stroke-width:0.5;" x1="8" x2="312" y1="180" y2="180"/><line style="stroke:#181818;stroke-width:0.5;" x1="8" x2="312" y1="188" y2="188"/><ellipse cx="18" cy="201.6484" fill="#84BE84" rx="3" ry="3" style="stroke:#038048;stroke-width:1.0;"/><text fill="#000000" font-family="sans-serif" font-size="14" lengthAdjust="spacing" textLength="253" x="27" y="204.9951">create_graphic(): AbstractGraphics</text><ellipse cx="18" cy="217.9453" fill="#84BE84" rx="3" ry="3" style="stroke:#038048;stroke-width:1.0;"/><text fill="#000000" font-family="sans-serif" font-size="14" lengthAdjust="spacing" textLength="280" x="27" y="221.292">calculate_statistic(): AbstractStatistics</text></g><!--class ConcreteFactory6--><g id="elem_ConcreteFactory6"><rect codeLine="31" fill="#F1F1F1" height="80.5938" id="ConcreteFactory6" rx="2.5" ry="2.5" style="stroke:#181818;stroke-width:0.5;" width="306" x="348" y="148"/><ellipse cx="431.75" cy="164" fill="#ADD1B2" rx="11" ry="11" style="stroke:#181818;stroke-width:1.0;"/><path d="M434.0938,159.6719 C433.1563,159.2344 432.5625,159.0938 431.6875,159.0938 C429.0625,159.0938 427.0625,161.1719 427.0625,163.8906 L427.0625,165.0156 C427.0625,167.5938 429.1719,169.4844 432.0625,169.4844 C433.2813,169.4844 434.4375,169.1875 435.1875,168.6406 C435.7656,168.2344 436.0938,167.7813 436.0938,167.3906 C436.0938,166.9375 435.7031,166.5469 435.2344,166.5469 C435.0156,166.5469 434.8125,166.625 434.625,166.8125 C434.1719,167.2969 434.1719,167.2969 433.9844,167.3906 C433.5625,167.6563 432.875,167.7813 432.1094,167.7813 C430.0625,167.7813 428.7656,166.6875 428.7656,164.9844 L428.7656,163.8906 C428.7656,162.1094 430.0156,160.7969 431.75,160.7969 C432.3281,160.7969 432.9375,160.9531 433.4063,161.2031 C433.8906,161.4844 434.0625,161.7031 434.1563,162.1094 C434.2188,162.5156 434.25,162.6406 434.3906,162.7656 C434.5313,162.9063 434.7656,163.0156 434.9844,163.0156 C435.25,163.0156 435.5156,162.875 435.6875,162.6563 C435.7969,162.5 435.8281,162.3125 435.8281,161.8906 L435.8281,160.4688 C435.8281,160.0313 435.8125,159.9063 435.7188,159.75 C435.5625,159.4844 435.2813,159.3438 434.9844,159.3438 C434.6875,159.3438 434.4844,159.4375 434.2656,159.75 L434.0938,159.6719 Z " fill="#000000"/><text fill="#000000" font-family="sans-serif" font-size="14" lengthAdjust="spacing" textLength="130" x="452.25" y="168.8467">ConcreteFactory6</text><line style="stroke:#181818;stroke-width:0.5;" x1="349" x2="653" y1="180" y2="180"/><line style="stroke:#181818;stroke-width:0.5;" x1="349" x2="653" y1="188" y2="188"/><ellipse cx="359" cy="201.6484" fill="#84BE84" rx="3" ry="3" style="stroke:#038048;stroke-width:1.0;"/><text fill="#000000" font-family="sans-serif" font-size="14" lengthAdjust="spacing" textLength="253" x="368" y="204.9951">create_graphic(): AbstractGraphics</text><ellipse cx="359" cy="217.9453" fill="#84BE84" rx="3" ry="3" style="stroke:#038048;stroke-width:1.0;"/><text fill="#000000" font-family="sans-serif" font-size="14" lengthAdjust="spacing" textLength="280" x="368" y="221.292">calculate_statistic(): AbstractStatistics</text></g><!--class AbstractGraphics--><g id="elem_AbstractGraphics"><rect codeLine="36" fill="#F1F1F1" height="64.2969" id="AbstractGraphics" rx="2.5" ry="2.5" style="stroke:#181818;stroke-width:0.5;" width="173" x="2161.5" y="156.5"/><ellipse cx="2183.25" cy="172.5" fill="#ADD1B2" rx="11" ry="11" style="stroke:#181818;stroke-width:1.0;"/><path d="M2185.5938,168.1719 C2184.6563,167.7344 2184.0625,167.5938 2183.1875,167.5938 C2180.5625,167.5938 2178.5625,169.6719 2178.5625,172.3906 L2178.5625,173.5156 C2178.5625,176.0938 2180.6719,177.9844 2183.5625,177.9844 C2184.7813,177.9844 2185.9375,177.6875 2186.6875,177.1406 C2187.2656,176.7344 2187.5938,176.2813 2187.5938,175.8906 C2187.5938,175.4375 2187.2031,175.0469 2186.7344,175.0469 C2186.5156,175.0469 2186.3125,175.125 2186.125,175.3125 C2185.6719,175.7969 2185.6719,175.7969 2185.4844,175.8906 C2185.0625,176.1563 2184.375,176.2813 2183.6094,176.2813 C2181.5625,176.2813 2180.2656,175.1875 2180.2656,173.4844 L2180.2656,172.3906 C2180.2656,170.6094 2181.5156,169.2969 2183.25,169.2969 C2183.8281,169.2969 2184.4375,169.4531 2184.9063,169.7031 C2185.3906,169.9844 2185.5625,170.2031 2185.6563,170.6094 C2185.7188,171.0156 2185.75,171.1406 2185.8906,171.2656 C2186.0313,171.4063 2186.2656,171.5156 2186.4844,171.5156 C2186.75,171.5156 2187.0156,171.375 2187.1875,171.1563 C2187.2969,171 2187.3281,170.8125 2187.3281,170.3906 L2187.3281,168.9688 C2187.3281,168.5313 2187.3125,168.4063 2187.2188,168.25 C2187.0625,167.9844 2186.7813,167.8438 2186.4844,167.8438 C2186.1875,167.8438 2185.9844,167.9375 2185.7656,168.25 L2185.5938,168.1719 Z " fill="#000000"/><text fill="#000000" font-family="sans-serif" font-size="14" lengthAdjust="spacing" textLength="126" x="2198.75" y="177.3467">AbstractGraphics</text><line style="stroke:#181818;stroke-width:0.5;" x1="2162.5" x2="2333.5" y1="188.5" y2="188.5"/><line style="stroke:#181818;stroke-width:0.5;" x1="2162.5" x2="2333.5" y1="196.5" y2="196.5"/><ellipse cx="2172.5" cy="210.1484" fill="#84BE84" rx="3" ry="3" style="stroke:#038048;stroke-width:1.0;"/><text fill="#000000" font-family="sans-serif" font-size="14" lengthAdjust="spacing" textLength="147" x="2181.5" y="213.4951">create_graphic(): str</text></g><!--class GraficoBarras--><g id="elem_GraficoBarras"><rect codeLine="40" fill="#F1F1F1" height="64.2969" id="GraficoBarras" rx="2.5" ry="2.5" style="stroke:#181818;stroke-width:0.5;" width="173" x="2161.5" y="289"/><ellipse cx="2196.3" cy="305" fill="#ADD1B2" rx="11" ry="11" style="stroke:#181818;stroke-width:1.0;"/><path d="M2198.6438,300.6719 C2197.7063,300.2344 2197.1125,300.0938 2196.2375,300.0938 C2193.6125,300.0938 2191.6125,302.1719 2191.6125,304.8906 L2191.6125,306.0156 C2191.6125,308.5938 2193.7219,310.4844 2196.6125,310.4844 C2197.8313,310.4844 2198.9875,310.1875 2199.7375,309.6406 C2200.3156,309.2344 2200.6438,308.7813 2200.6438,308.3906 C2200.6438,307.9375 2200.2531,307.5469 2199.7844,307.5469 C2199.5656,307.5469 2199.3625,307.625 2199.175,307.8125 C2198.7219,308.2969 2198.7219,308.2969 2198.5344,308.3906 C2198.1125,308.6563 2197.425,308.7813 2196.6594,308.7813 C2194.6125,308.7813 2193.3156,307.6875 2193.3156,305.9844 L2193.3156,304.8906 C2193.3156,303.1094 2194.5656,301.7969 2196.3,301.7969 C2196.8781,301.7969 2197.4875,301.9531 2197.9563,302.2031 C2198.4406,302.4844 2198.6125,302.7031 2198.7063,303.1094 C2198.7688,303.5156 2198.8,303.6406 2198.9406,303.7656 C2199.0813,303.9063 2199.3156,304.0156 2199.5344,304.0156 C2199.8,304.0156 2200.0656,303.875 2200.2375,303.6563 C2200.3469,303.5 2200.3781,303.3125 2200.3781,302.8906 L2200.3781,301.4688 C2200.3781,301.0313 2200.3625,300.9063 2200.2688,300.75 C2200.1125,300.4844 2199.8313,300.3438 2199.5344,300.3438 C2199.2375,300.3438 2199.0344,300.4375 2198.8156,300.75 L2198.6438,300.6719 Z " fill="#000000"/><text fill="#000000" font-family="sans-serif" font-size="14" lengthAdjust="spacing" textLength="97" x="2214.7" y="309.8467">GraficoBarras</text><line style="stroke:#181818;stroke-width:0.5;" x1="2162.5" x2="2333.5" y1="321" y2="321"/><line style="stroke:#181818;stroke-width:0.5;" x1="2162.5" x2="2333.5" y1="329" y2="329"/><ellipse cx="2172.5" cy="342.6484" fill="#84BE84" rx="3" ry="3" style="stroke:#038048;stroke-width:1.0;"/><text fill="#000000" font-family="sans-serif" font-size="14" lengthAdjust="spacing" textLength="147" x="2181.5" y="345.9951">create_graphic(): str</text></g><!--class GraficoHistograma--><g id="elem_GraficoHistograma"><rect codeLine="44" fill="#F1F1F1" height="64.2969" id="GraficoHistograma" rx="2.5" ry="2.5" style="stroke:#181818;stroke-width:0.5;" width="173" x="1114.5" y="289"/><ellipse cx="1132.65" cy="305" fill="#ADD1B2" rx="11" ry="11" style="stroke:#181818;stroke-width:1.0;"/><path d="M1134.9938,300.6719 C1134.0563,300.2344 1133.4625,300.0938 1132.5875,300.0938 C1129.9625,300.0938 1127.9625,302.1719 1127.9625,304.8906 L1127.9625,306.0156 C1127.9625,308.5938 1130.0719,310.4844 1132.9625,310.4844 C1134.1813,310.4844 1135.3375,310.1875 1136.0875,309.6406 C1136.6656,309.2344 1136.9938,308.7813 1136.9938,308.3906 C1136.9938,307.9375 1136.6031,307.5469 1136.1344,307.5469 C1135.9156,307.5469 1135.7125,307.625 1135.525,307.8125 C1135.0719,308.2969 1135.0719,308.2969 1134.8844,308.3906 C1134.4625,308.6563 1133.775,308.7813 1133.0094,308.7813 C1130.9625,308.7813 1129.6656,307.6875 1129.6656,305.9844 L1129.6656,304.8906 C1129.6656,303.1094 1130.9156,301.7969 1132.65,301.7969 C1133.2281,301.7969 1133.8375,301.9531 1134.3063,302.2031 C1134.7906,302.4844 1134.9625,302.7031 1135.0563,303.1094 C1135.1188,303.5156 1135.15,303.6406 1135.2906,303.7656 C1135.4313,303.9063 1135.6656,304.0156 1135.8844,304.0156 C1136.15,304.0156 1136.4156,303.875 1136.5875,303.6563 C1136.6969,303.5 1136.7281,303.3125 1136.7281,302.8906 L1136.7281,301.4688 C1136.7281,301.0313 1136.7125,300.9063 1136.6188,300.75 C1136.4625,300.4844 1136.1813,300.3438 1135.8844,300.3438 C1135.5875,300.3438 1135.3844,300.4375 1135.1656,300.75 L1134.9938,300.6719 Z " fill="#000000"/><text fill="#000000" font-family="sans-serif" font-size="14" lengthAdjust="spacing" textLength="134" x="1147.35" y="309.8467">GraficoHistograma</text><line style="stroke:#181818;stroke-width:0.5;" x1="1115.5" x2="1286.5" y1="321" y2="321"/><line style="stroke:#181818;stroke-width:0.5;" x1="1115.5" x2="1286.5" y1="329" y2="329"/><ellipse cx="1125.5" cy="342.6484" fill="#84BE84" rx="3" ry="3" style="stroke:#038048;stroke-width:1.0;"/><text fill="#000000" font-family="sans-serif" font-size="14" lengthAdjust="spacing" textLength="147" x="1134.5" y="345.9951">create_graphic(): str</text></g><!--class AbstractStatistics--><g id="elem_AbstractStatistics"><rect codeLine="48" fill="#F1F1F1" height="80.5938" id="AbstractStatistics" rx="2.5" ry="2.5" style="stroke:#181818;stroke-width:0.5;" width="359" x="1398.5" y="7"/><ellipse cx="1508.25" cy="23" fill="#ADD1B2" rx="11" ry="11" style="stroke:#181818;stroke-width:1.0;"/><path d="M1510.5938,18.6719 C1509.6563,18.2344 1509.0625,18.0938 1508.1875,18.0938 C1505.5625,18.0938 1503.5625,20.1719 1503.5625,22.8906 L1503.5625,24.0156 C1503.5625,26.5938 1505.6719,28.4844 1508.5625,28.4844 C1509.7813,28.4844 1510.9375,28.1875 1511.6875,27.6406 C1512.2656,27.2344 1512.5938,26.7813 1512.5938,26.3906 C1512.5938,25.9375 1512.2031,25.5469 1511.7344,25.5469 C1511.5156,25.5469 1511.3125,25.625 1511.125,25.8125 C1510.6719,26.2969 1510.6719,26.2969 1510.4844,26.3906 C1510.0625,26.6563 1509.375,26.7813 1508.6094,26.7813 C1506.5625,26.7813 1505.2656,25.6875 1505.2656,23.9844 L1505.2656,22.8906 C1505.2656,21.1094 1506.5156,19.7969 1508.25,19.7969 C1508.8281,19.7969 1509.4375,19.9531 1509.9063,20.2031 C1510.3906,20.4844 1510.5625,20.7031 1510.6563,21.1094 C1510.7188,21.5156 1510.75,21.6406 1510.8906,21.7656 C1511.0313,21.9063 1511.2656,22.0156 1511.4844,22.0156 C1511.75,22.0156 1512.0156,21.875 1512.1875,21.6563 C1512.2969,21.5 1512.3281,21.3125 1512.3281,20.8906 L1512.3281,19.4688 C1512.3281,19.0313 1512.3125,18.9063 1512.2188,18.75 C1512.0625,18.4844 1511.7813,18.3438 1511.4844,18.3438 C1511.1875,18.3438 1510.9844,18.4375 1510.7656,18.75 L1510.5938,18.6719 Z " fill="#000000"/><text fill="#000000" font-family="sans-serif" font-size="14" lengthAdjust="spacing" textLength="131" x="1528.75" y="27.8467">AbstractStatistics</text><line style="stroke:#181818;stroke-width:0.5;" x1="1399.5" x2="1756.5" y1="39" y2="39"/><line style="stroke:#181818;stroke-width:0.5;" x1="1399.5" x2="1756.5" y1="47" y2="47"/><ellipse cx="1409.5" cy="60.6484" fill="#84BE84" rx="3" ry="3" style="stroke:#038048;stroke-width:1.0;"/><text fill="#000000" font-family="sans-serif" font-size="14" lengthAdjust="spacing" textLength="169" x="1418.5" y="63.9951">calculate_statistic(): str</text><ellipse cx="1409.5" cy="76.9453" fill="#84BE84" rx="3" ry="3" style="stroke:#038048;stroke-width:1.0;"/><text fill="#000000" font-family="sans-serif" font-size="14" lengthAdjust="spacing" textLength="333" x="1418.5" y="80.292">graphic(collaborator: AbstractGraphics): None</text></g><!--class Mean--><g id="elem_Mean"><rect codeLine="53" fill="#F1F1F1" height="80.5938" id="Mean" rx="2.5" ry="2.5" style="stroke:#181818;stroke-width:0.5;" width="342" x="1030" y="148"/><ellipse cx="1177.75" cy="164" fill="#ADD1B2" rx="11" ry="11" style="stroke:#181818;stroke-width:1.0;"/><path d="M1180.0938,159.6719 C1179.1563,159.2344 1178.5625,159.0938 1177.6875,159.0938 C1175.0625,159.0938 1173.0625,161.1719 1173.0625,163.8906 L1173.0625,165.0156 C1173.0625,167.5938 1175.1719,169.4844 1178.0625,169.4844 C1179.2813,169.4844 1180.4375,169.1875 1181.1875,168.6406 C1181.7656,168.2344 1182.0938,167.7813 1182.0938,167.3906 C1182.0938,166.9375 1181.7031,166.5469 1181.2344,166.5469 C1181.0156,166.5469 1180.8125,166.625 1180.625,166.8125 C1180.1719,167.2969 1180.1719,167.2969 1179.9844,167.3906 C1179.5625,167.6563 1178.875,167.7813 1178.1094,167.7813 C1176.0625,167.7813 1174.7656,166.6875 1174.7656,164.9844 L1174.7656,163.8906 C1174.7656,162.1094 1176.0156,160.7969 1177.75,160.7969 C1178.3281,160.7969 1178.9375,160.9531 1179.4063,161.2031 C1179.8906,161.4844 1180.0625,161.7031 1180.1563,162.1094 C1180.2188,162.5156 1180.25,162.6406 1180.3906,162.7656 C1180.5313,162.9063 1180.7656,163.0156 1180.9844,163.0156 C1181.25,163.0156 1181.5156,162.875 1181.6875,162.6563 C1181.7969,162.5 1181.8281,162.3125 1181.8281,161.8906 L1181.8281,160.4688 C1181.8281,160.0313 1181.8125,159.9063 1181.7188,159.75 C1181.5625,159.4844 1181.2813,159.3438 1180.9844,159.3438 C1180.6875,159.3438 1180.4844,159.4375 1180.2656,159.75 L1180.0938,159.6719 Z " fill="#000000"/><text fill="#000000" font-family="sans-serif" font-size="14" lengthAdjust="spacing" textLength="38" x="1198.25" y="168.8467">Mean</text><line style="stroke:#181818;stroke-width:0.5;" x1="1031" x2="1371" y1="180" y2="180"/><line style="stroke:#181818;stroke-width:0.5;" x1="1031" x2="1371" y1="188" y2="188"/><ellipse cx="1041" cy="201.6484" fill="#84BE84" rx="3" ry="3" style="stroke:#038048;stroke-width:1.0;"/><text fill="#000000" font-family="sans-serif" font-size="14" lengthAdjust="spacing" textLength="169" x="1050" y="204.9951">calculate_statistic(): str</text><ellipse cx="1041" cy="217.9453" fill="#84BE84" rx="3" ry="3" style="stroke:#038048;stroke-width:1.0;"/><text fill="#000000" font-family="sans-serif" font-size="14" lengthAdjust="spacing" textLength="316" x="1050" y="221.292">graphic(collaborator: AbstractGraphics): str</text></g><!--class Mode--><g id="elem_Mode"><rect codeLine="58" fill="#F1F1F1" height="80.5938" id="Mode" rx="2.5" ry="2.5" style="stroke:#181818;stroke-width:0.5;" width="342" x="1407" y="148"/><ellipse cx="1554.25" cy="164" fill="#ADD1B2" rx="11" ry="11" style="stroke:#181818;stroke-width:1.0;"/><path d="M1556.5938,159.6719 C1555.6563,159.2344 1555.0625,159.0938 1554.1875,159.0938 C1551.5625,159.0938 1549.5625,161.1719 1549.5625,163.8906 L1549.5625,165.0156 C1549.5625,167.5938 1551.6719,169.4844 1554.5625,169.4844 C1555.7813,169.4844 1556.9375,169.1875 1557.6875,168.6406 C1558.2656,168.2344 1558.5938,167.7813 1558.5938,167.3906 C1558.5938,166.9375 1558.2031,166.5469 1557.7344,166.5469 C1557.5156,166.5469 1557.3125,166.625 1557.125,166.8125 C1556.6719,167.2969 1556.6719,167.2969 1556.4844,167.3906 C1556.0625,167.6563 1555.375,167.7813 1554.6094,167.7813 C1552.5625,167.7813 1551.2656,166.6875 1551.2656,164.9844 L1551.2656,163.8906 C1551.2656,162.1094 1552.5156,160.7969 1554.25,160.7969 C1554.8281,160.7969 1555.4375,160.9531 1555.9063,161.2031 C1556.3906,161.4844 1556.5625,161.7031 1556.6563,162.1094 C1556.7188,162.5156 1556.75,162.6406 1556.8906,162.7656 C1557.0313,162.9063 1557.2656,163.0156 1557.4844,163.0156 C1557.75,163.0156 1558.0156,162.875 1558.1875,162.6563 C1558.2969,162.5 1558.3281,162.3125 1558.3281,161.8906 L1558.3281,160.4688 C1558.3281,160.0313 1558.3125,159.9063 1558.2188,159.75 C1558.0625,159.4844 1557.7813,159.3438 1557.4844,159.3438 C1557.1875,159.3438 1556.9844,159.4375 1556.7656,159.75 L1556.5938,159.6719 Z " fill="#000000"/><text fill="#000000" font-family="sans-serif" font-size="14" lengthAdjust="spacing" textLength="39" x="1574.75" y="168.8467">Mode</text><line style="stroke:#181818;stroke-width:0.5;" x1="1408" x2="1748" y1="180" y2="180"/><line style="stroke:#181818;stroke-width:0.5;" x1="1408" x2="1748" y1="188" y2="188"/><ellipse cx="1418" cy="201.6484" fill="#84BE84" rx="3" ry="3" style="stroke:#038048;stroke-width:1.0;"/><text fill="#000000" font-family="sans-serif" font-size="14" lengthAdjust="spacing" textLength="169" x="1427" y="204.9951">calculate_statistic(): str</text><ellipse cx="1418" cy="217.9453" fill="#84BE84" rx="3" ry="3" style="stroke:#038048;stroke-width:1.0;"/><text fill="#000000" font-family="sans-serif" font-size="14" lengthAdjust="spacing" textLength="316" x="1427" y="221.292">graphic(collaborator: AbstractGraphics): str</text></g><!--class Median--><g id="elem_Median"><rect codeLine="63" fill="#F1F1F1" height="80.5938" id="Median" rx="2.5" ry="2.5" style="stroke:#181818;stroke-width:0.5;" width="342" x="1784" y="148"/><ellipse cx="1925.25" cy="164" fill="#ADD1B2" rx="11" ry="11" style="stroke:#181818;stroke-width:1.0;"/><path d="M1927.5938,159.6719 C1926.6563,159.2344 1926.0625,159.0938 1925.1875,159.0938 C1922.5625,159.0938 1920.5625,161.1719 1920.5625,163.8906 L1920.5625,165.0156 C1920.5625,167.5938 1922.6719,169.4844 1925.5625,169.4844 C1926.7813,169.4844 1927.9375,169.1875 1928.6875,168.6406 C1929.2656,168.2344 1929.5938,167.7813 1929.5938,167.3906 C1929.5938,166.9375 1929.2031,166.5469 1928.7344,166.5469 C1928.5156,166.5469 1928.3125,166.625 1928.125,166.8125 C1927.6719,167.2969 1927.6719,167.2969 1927.4844,167.3906 C1927.0625,167.6563 1926.375,167.7813 1925.6094,167.7813 C1923.5625,167.7813 1922.2656,166.6875 1922.2656,164.9844 L1922.2656,163.8906 C1922.2656,162.1094 1923.5156,160.7969 1925.25,160.7969 C1925.8281,160.7969 1926.4375,160.9531 1926.9063,161.2031 C1927.3906,161.4844 1927.5625,161.7031 1927.6563,162.1094 C1927.7188,162.5156 1927.75,162.6406 1927.8906,162.7656 C1928.0313,162.9063 1928.2656,163.0156 1928.4844,163.0156 C1928.75,163.0156 1929.0156,162.875 1929.1875,162.6563 C1929.2969,162.5 1929.3281,162.3125 1929.3281,161.8906 L1929.3281,160.4688 C1929.3281,160.0313 1929.3125,159.9063 1929.2188,159.75 C1929.0625,159.4844 1928.7813,159.3438 1928.4844,159.3438 C1928.1875,159.3438 1927.9844,159.4375 1927.7656,159.75 L1927.5938,159.6719 Z " fill="#000000"/><text fill="#000000" font-family="sans-serif" font-size="14" lengthAdjust="spacing" textLength="51" x="1945.75" y="168.8467">Median</text><line style="stroke:#181818;stroke-width:0.5;" x1="1785" x2="2125" y1="180" y2="180"/><line style="stroke:#181818;stroke-width:0.5;" x1="1785" x2="2125" y1="188" y2="188"/><ellipse cx="1795" cy="201.6484" fill="#84BE84" rx="3" ry="3" style="stroke:#038048;stroke-width:1.0;"/><text fill="#000000" font-family="sans-serif" font-size="14" lengthAdjust="spacing" textLength="169" x="1804" y="204.9951">calculate_statistic(): str</text><ellipse cx="1795" cy="217.9453" fill="#84BE84" rx="3" ry="3" style="stroke:#038048;stroke-width:1.0;"/><text fill="#000000" font-family="sans-serif" font-size="14" lengthAdjust="spacing" textLength="316" x="1804" y="221.292">graphic(collaborator: AbstractGraphics): str</text></g><!--reverse link AbstractFactory to ConcreteFactory1--><g id="link_AbstractFactory_ConcreteFactory1"><path codeLine="68" d="M2404.8014,84.7918 C2494.3314,103.9518 2591.85,125.086 2694,148 C2699.47,149.227 2705.04,150.483 2710.66,151.757 " fill="none" id="AbstractFactory-backto-ConcreteFactory1" style="stroke:#181818;stroke-width:1.0;"/><polygon fill="none" points="2387.2,81.025,2403.5458,90.659,2406.0571,78.9247,2387.2,81.025" style="stroke:#181818;stroke-width:1.0;"/></g><!--reverse link AbstractFactory to ConcreteFactory2--><g id="link_AbstractFactory_ConcreteFactory2"><path codeLine="69" d="M2405.0612,64.4961 C2566.8012,80.6251 2810.97,108.172 3035,148 C3040.52,148.981 3046.13,150.027 3051.79,151.123 " fill="none" id="AbstractFactory-backto-ConcreteFactory2" style="stroke:#181818;stroke-width:1.0;"/><polygon fill="none" points="2387.15,62.71,2404.4658,70.4665,2405.6565,58.5257,2387.15,62.71" style="stroke:#181818;stroke-width:1.0;"/></g><!--reverse link AbstractFactory to ConcreteFactory3--><g id="link_AbstractFactory_ConcreteFactory3"><path codeLine="70" d="M2332.6515,95.9474 C2371.6115,114.6844 2401.77,129.194 2440.71,147.922 " fill="none" id="AbstractFactory-backto-ConcreteFactory3" style="stroke:#181818;stroke-width:1.0;"/><polygon fill="none" points="2316.43,88.146,2330.0511,101.3546,2335.252,90.5402,2316.43,88.146" style="stroke:#181818;stroke-width:1.0;"/></g><!--reverse link AbstractFactory to ConcreteFactory4--><g id="link_AbstractFactory_ConcreteFactory4"><path codeLine="71" d="M2062.8279,63.5332 C1973.6279,71.3042 1876.93,79.606 1775,88 C1435.99,115.916 1348.16,96.028 1012,148 C1006.46,148.856 1000.833,149.795 995.161,150.8 " fill="none" id="AbstractFactory-backto-ConcreteFactory4" style="stroke:#181818;stroke-width:1.0;"/><polygon fill="none" points="2080.76,61.971,2062.3072,57.5559,2063.3487,69.5106,2080.76,61.971" style="stroke:#181818;stroke-width:1.0;"/></g><!--reverse link AbstractFactory to ConcreteFactory5--><g id="link_AbstractFactory_ConcreteFactory5"><path codeLine="72" d="M2062.9464,65.0455 C1973.7764,73.2865 1877.07,81.492 1775,88 C1133.53,128.899 966.936,61.552 330,148 C324.445,148.754 318.806,149.605 313.123,150.536 " fill="none" id="AbstractFactory-backto-ConcreteFactory5" style="stroke:#181818;stroke-width:1.0;"/><polygon fill="none" points="2080.87,63.389,2062.3942,59.0709,2063.4985,71.02,2080.87,63.389" style="stroke:#181818;stroke-width:1.0;"/></g><!--reverse link AbstractFactory to ConcreteFactory6--><g id="link_AbstractFactory_ConcreteFactory6"><path codeLine="73" d="M2062.9034,64.522 C1973.7234,72.601 1877.03,80.839 1775,88 C1284.82,122.403 1157.49,78.798 671,148 C665.45,148.789 659.815,149.671 654.135,150.627 " fill="none" id="AbstractFactory-backto-ConcreteFactory6" style="stroke:#181818;stroke-width:1.0;"/><polygon fill="none" points="2080.83,62.898,2062.3621,58.5465,2063.4447,70.4975,2080.83,62.898" style="stroke:#181818;stroke-width:1.0;"/></g><!--reverse link AbstractGraphics to GraficoBarras--><g id="link_AbstractGraphics_GraficoBarras"><path codeLine="75" d="M2248,238.758 C2248,259.419 2248,268.3883 2248,288.9971 " fill="none" id="AbstractGraphics-backto-GraficoBarras" style="stroke:#181818;stroke-width:1.0;"/><polygon fill="none" points="2248,220.758,2242,238.758,2254,238.758,2248,220.758" style="stroke:#181818;stroke-width:1.0;"/></g><!--reverse link AbstractGraphics to GraficoHistograma--><g id="link_AbstractGraphics_GraficoHistograma"><path codeLine="76" d="M2155.6527,226.1649 C2145.7727,229.4369 2152.77,226.732 2143,229 C1833.91,300.7398 1455.07,316.0285 1287.62,319.211 " fill="none" id="AbstractGraphics-backto-GraficoHistograma" style="stroke:#181818;stroke-width:1.0;"/><polygon fill="none" points="2172.74,220.506,2153.7664,220.4691,2157.539,231.8607,2172.74,220.506" style="stroke:#181818;stroke-width:1.0;"/></g><!--reverse link AbstractStatistics to Mean--><g id="link_AbstractStatistics_Mean"><path codeLine="78" d="M1453.8315,94.2802 C1402.9015,113.0592 1359.07,129.218 1308.16,147.992 " fill="none" id="AbstractStatistics-backto-Mean" style="stroke:#181818;stroke-width:1.0;"/><polygon fill="none" points="1470.72,88.053,1451.7557,88.6507,1455.9072,99.9097,1470.72,88.053" style="stroke:#181818;stroke-width:1.0;"/></g><!--reverse link AbstractStatistics to Mode--><g id="link_AbstractStatistics_Mode"><path codeLine="79" d="M1578,106.332 C1578,124.944 1578,129.05 1578,147.662 " fill="none" id="AbstractStatistics-backto-Mode" style="stroke:#181818;stroke-width:1.0;"/><polygon fill="none" points="1578,88.332,1572,106.332,1584,106.332,1578,88.332" style="stroke:#181818;stroke-width:1.0;"/></g><!--reverse link AbstractStatistics to Median--><g id="link_AbstractStatistics_Median"><path codeLine="80" d="M1702.1685,94.2802 C1753.0985,113.0592 1796.93,129.218 1847.84,147.992 " fill="none" id="AbstractStatistics-backto-Median" style="stroke:#181818;stroke-width:1.0;"/><polygon fill="none" points="1685.28,88.053,1700.0928,99.9097,1704.2443,88.6507,1685.28,88.053" style="stroke:#181818;stroke-width:1.0;"/></g><!--reverse link ConcreteFactory1 to GraficoBarras--><g id="link_ConcreteFactory1_GraficoBarras"><path codeLine="82" d="M2698.9657,227.9289 C2693.3357,229.1799 2699.48,227.805 2694,229 C2569.5,256.1602 2424.89,285.2094 2334.9,302.992 " fill="none" id="ConcreteFactory1-backto-GraficoBarras" style="stroke:#181818;stroke-width:1.0;"/><polygon fill="#181818" points="2710.68,225.326,2703.9552,222.7227,2698.9657,227.9289,2705.6905,230.5322,2710.68,225.326" style="stroke:#181818;stroke-width:1.0;"/></g><!--reverse link ConcreteFactory2 to GraficoBarras--><g id="link_ConcreteFactory2_GraficoBarras"><path codeLine="83" d="M3040.0123,228.1852 C3034.3523,229.2642 3040.52,228.042 3035,229 C2782.26,272.8303 2480.08,301.0954 2334.64,313.212 " fill="none" id="ConcreteFactory2-backto-GraficoBarras" style="stroke:#181818;stroke-width:1.0;"/><polygon fill="#181818" points="3051.8,225.938,3045.1571,223.1323,3040.0123,228.1852,3046.6552,230.9908,3051.8,225.938" style="stroke:#181818;stroke-width:1.0;"/></g><!--reverse link ConcreteFactory3 to GraficoBarras--><g id="link_ConcreteFactory3_GraficoBarras"><path codeLine="84" d="M2428.8988,234.1527 C2388.4288,253.3577 2351.34,270.9611 2313.52,288.9078 " fill="none" id="ConcreteFactory3-backto-GraficoBarras" style="stroke:#181818;stroke-width:1.0;"/><polygon fill="#181818" points="2439.74,229.008,2432.6045,227.9666,2428.8988,234.1527,2436.0343,235.1941,2439.74,229.008" style="stroke:#181818;stroke-width:1.0;"/></g><!--reverse link ConcreteFactory4 to GraficoHistograma--><g id="link_ConcreteFactory4_GraficoHistograma"><path codeLine="85" d="M961.964,233.1077 C1014.796,252.3127 1066.1,270.9611 1115.47,288.9078 " fill="none" id="ConcreteFactory4-backto-GraficoHistograma" style="stroke:#181818;stroke-width:1.0;"/><polygon fill="#181818" points="950.686,229.008,954.9584,234.8172,961.964,233.1077,957.6915,227.2985,950.686,229.008" style="stroke:#181818;stroke-width:1.0;"/></g><!--reverse link ConcreteFactory5 to GraficoHistograma--><g id="link_ConcreteFactory5_GraficoHistograma"><path codeLine="86" d="M324.9873,228.2174 C330.6513,229.2744 324.472,228.073 330,229 C615.08,276.8217 957.131,303.804 1114.29,314.5238 " fill="none" id="ConcreteFactory5-backto-GraficoHistograma" style="stroke:#181818;stroke-width:1.0;"/><polygon fill="#181818" points="313.191,226.016,318.3554,231.0488,324.9873,228.2174,319.823,223.1846,313.191,226.016" style="stroke:#181818;stroke-width:1.0;"/></g><!--reverse link ConcreteFactory6 to GraficoHistograma--><g id="link_ConcreteFactory6_GraficoHistograma"><path codeLine="87" d="M666.0189,228.0224 C671.6589,229.2114 665.505,227.891 671,229 C826.575,260.4024 1009.25,290.2276 1114.42,306.7225 " fill="none" id="ConcreteFactory6-backto-GraficoHistograma" style="stroke:#181818;stroke-width:1.0;"/><polygon fill="#181818" points="654.277,225.547,659.3228,230.6987,666.0189,228.0224,660.9731,222.8707,654.277,225.547" style="stroke:#181818;stroke-width:1.0;"/></g><!--reverse link Mean to GraficoBarras--><g id="link_Mean_GraficoBarras"><path codeLine="89" d="M1384.0573,228.2644 C1389.7073,229.2334 1383.48,228.13 1389,229 C1669.91,273.2722 2005.97,301.8865 2161.36,313.7484 " fill="none" id="Mean-backto-GraficoBarras" style="stroke:#181818;stroke-width:1.0;"/><polygon fill="#181818" points="1372.23,226.236,1377.4675,231.1927,1384.0573,228.2644,1378.8198,223.3078,1372.23,226.236" style="stroke:#181818;stroke-width:1.0;"/></g><!--reverse link Mode to GraficoBarras--><g id="link_Mode_GraficoBarras"><path codeLine="90" d="M1760.8422,227.9782 C1766.5522,229.1322 1760.44,227.891 1766,229 C1904.01,256.5228 2064.68,286.4311 2161.26,304.177 " fill="none" id="Mode-backto-GraficoBarras" style="stroke:#181818;stroke-width:1.0;"/><polygon fill="#181818" points="1749.08,225.601,1754.1687,230.7103,1760.8422,227.9782,1755.7535,222.8688,1749.08,225.601" style="stroke:#181818;stroke-width:1.0;"/></g><!--reverse link Median to GraficoBarras--><g id="link_Median_GraficoBarras"><path codeLine="91" d="M2054.6619,233.8903 C2097.7819,253.0953 2137.9,270.9611 2178.19,288.9078 " fill="none" id="Median-backto-GraficoBarras" style="stroke:#181818;stroke-width:1.0;"/><polygon fill="#181818" points="2043.7,229.008,2047.5535,235.1031,2054.6619,233.8903,2050.8084,227.7952,2043.7,229.008" style="stroke:#181818;stroke-width:1.0;"/></g><!--reverse link Mean to GraficoHistograma--><g id="link_Mean_GraficoHistograma"><path codeLine="93" d="M1201,241.008 C1201,260.213 1201,270.9611 1201,288.9078 " fill="none" id="Mean-backto-GraficoHistograma" style="stroke:#181818;stroke-width:1.0;"/><polygon fill="#181818" points="1201,229.008,1197,235.008,1201,241.008,1205,235.008,1201,229.008" style="stroke:#181818;stroke-width:1.0;"/></g><!--reverse link Mode to GraficoHistograma--><g id="link_Mode_GraficoHistograma"><path codeLine="94" d="M1452.5203,232.9336 C1395.9603,252.5136 1340.1,271.851 1287.8,289.9538 " fill="none" id="Mode-backto-GraficoHistograma" style="stroke:#181818;stroke-width:1.0;"/><polygon fill="#181818" points="1463.86,229.008,1456.8816,227.1909,1452.5203,232.9336,1459.4987,234.7507,1463.86,229.008" style="stroke:#181818;stroke-width:1.0;"/></g><!--reverse link Median to GraficoHistograma--><g id="link_Median_GraficoHistograma"><path codeLine="95" d="M1772.0149,227.9058 C1766.0149,229.0568 1771.85,227.918 1766,229 C1597.23,260.2105 1398.95,290.7369 1287.84,307.2904 " fill="none" id="Median-backto-GraficoHistograma" style="stroke:#181818;stroke-width:1.0;"/><polygon fill="#181818" points="1783.8,225.645,1777.1539,222.847,1772.0149,227.9058,1778.661,230.7038,1783.8,225.645" style="stroke:#181818;stroke-width:1.0;"/></g><!--SRC=[lPM_JiCm4CPtFuL7_gW3JPe1iK0bO2aB3u2khe589gviCo3WtR4TKZkvfZKIyP35zxllktFEDXEWDRrUQwE0cLlxIVL1FmcbvvGf3eO_lIZOljRivFHonzsrIxh5GB1tuKXjmDJQzDd7Rb6JRqAOzrlAneeR_kjtaTjmdjkmo6rOvZPSv3Qi9ZSSwemQMYnaMVgvPl86b8A_fTpR0gHbtY0j3TVUvUtlrIMxSAV7f12mbWhiTk9TimaFik71RiMX-MU3NZihkU6JwlDDFLK7mmlqwcisGxTS4ZLFeeeagaoY5abK5PhSdGVFzURzC1C6F8X5m-jHDsNZGJiY1pBT_oK4FIvdg4hq71n5YkD86IDHg-YYJCAg4OpuOuYByQTdpt8xz3Y0T2AFeLOSGdeX-0C0]--></g></svg>