<?xml version="1.0" encoding="us-ascii" standalone="no"?><svg xmlns="http://www.w3.org/2000/svg" xmlns:xlink="http://www.w3.org/1999/xlink" contentStyleType="text/css" height="317px" preserveAspectRatio="none" style="width:306px;height:317px;background:#FFFFFF;" version="1.1" viewBox="0 0 306 317" width="306px" zoomAndPan="magnify"><defs/><g><!--class LecturaDatos--><g id="elem_LecturaDatos"><rect codeLine="1" fill="#F1F1F1" height="80.5938" id="LecturaDatos" rx="2.5" ry="2.5" style="stroke:#181818;stroke-width:0.5;" width="210" x="48" y="7"/><ellipse cx="100.75" cy="23" fill="#ADD1B2" rx="11" ry="11" style="stroke:#181818;stroke-width:1.0;"/><path d="M103.0938,18.6719 C102.1563,18.2344 101.5625,18.0938 100.6875,18.0938 C98.0625,18.0938 96.0625,20.1719 96.0625,22.8906 L96.0625,24.0156 C96.0625,26.5938 98.1719,28.4844 101.0625,28.4844 C102.2813,28.4844 103.4375,28.1875 104.1875,27.6406 C104.7656,27.2344 105.0938,26.7813 105.0938,26.3906 C105.0938,25.9375 104.7031,25.5469 104.2344,25.5469 C104.0156,25.5469 103.8125,25.625 103.625,25.8125 C103.1719,26.2969 103.1719,26.2969 102.9844,26.3906 C102.5625,26.6563 101.875,26.7813 101.1094,26.7813 C99.0625,26.7813 97.7656,25.6875 97.7656,23.9844 L97.7656,22.8906 C97.7656,21.1094 99.0156,19.7969 100.75,19.7969 C101.3281,19.7969 101.9375,19.9531 102.4063,20.2031 C102.8906,20.4844 103.0625,20.7031 103.1563,21.1094 C103.2188,21.5156 103.25,21.6406 103.3906,21.7656 C103.5313,21.9063 103.7656,22.0156 103.9844,22.0156 C104.25,22.0156 104.5156,21.875 104.6875,21.6563 C104.7969,21.5 104.8281,21.3125 104.8281,20.8906 L104.8281,19.4688 C104.8281,19.0313 104.8125,18.9063 104.7188,18.75 C104.5625,18.4844 104.2813,18.3438 103.9844,18.3438 C103.6875,18.3438 103.4844,18.4375 103.2656,18.75 L103.0938,18.6719 Z " fill="#000000"/><text fill="#000000" font-family="sans-serif" font-size="14" lengthAdjust="spacing" textLength="96" x="121.25" y="27.8467">LecturaDatos</text><line style="stroke:#181818;stroke-width:0.5;" x1="49" x2="257" y1="39" y2="39"/><rect fill="none" height="6" style="stroke:#C82930;stroke-width:1.0;" width="6" x="56" y="49.6484"/><text fill="#000000" font-family="sans-serif" font-size="14" lengthAdjust="spacing" textLength="52" x="68" y="55.9951">csv: str</text><line style="stroke:#181818;stroke-width:0.5;" x1="49" x2="257" y1="63.2969" y2="63.2969"/><ellipse cx="59" cy="76.9453" fill="#84BE84" rx="3" ry="3" style="stroke:#038048;stroke-width:1.0;"/><text fill="#000000" font-family="sans-serif" font-size="14" lengthAdjust="spacing" textLength="184" x="68" y="80.292">read_csv(): pd.DataFrame</text></g><!--class LimpiezaDatos--><g id="elem_LimpiezaDatos"><rect codeLine="6" fill="#F1F1F1" height="145.7813" id="LimpiezaDatos" rx="2.5" ry="2.5" style="stroke:#181818;stroke-width:0.5;" width="292" x="7" y="165"/><ellipse cx="95.25" cy="181" fill="#ADD1B2" rx="11" ry="11" style="stroke:#181818;stroke-width:1.0;"/><path d="M97.5938,176.6719 C96.6563,176.2344 96.0625,176.0938 95.1875,176.0938 C92.5625,176.0938 90.5625,178.1719 90.5625,180.8906 L90.5625,182.0156 C90.5625,184.5938 92.6719,186.4844 95.5625,186.4844 C96.7813,186.4844 97.9375,186.1875 98.6875,185.6406 C99.2656,185.2344 99.5938,184.7813 99.5938,184.3906 C99.5938,183.9375 99.2031,183.5469 98.7344,183.5469 C98.5156,183.5469 98.3125,183.625 98.125,183.8125 C97.6719,184.2969 97.6719,184.2969 97.4844,184.3906 C97.0625,184.6563 96.375,184.7813 95.6094,184.7813 C93.5625,184.7813 92.2656,183.6875 92.2656,181.9844 L92.2656,180.8906 C92.2656,179.1094 93.5156,177.7969 95.25,177.7969 C95.8281,177.7969 96.4375,177.9531 96.9063,178.2031 C97.3906,178.4844 97.5625,178.7031 97.6563,179.1094 C97.7188,179.5156 97.75,179.6406 97.8906,179.7656 C98.0313,179.9063 98.2656,180.0156 98.4844,180.0156 C98.75,180.0156 99.0156,179.875 99.1875,179.6563 C99.2969,179.5 99.3281,179.3125 99.3281,178.8906 L99.3281,177.4688 C99.3281,177.0313 99.3125,176.9063 99.2188,176.75 C99.0625,176.4844 98.7813,176.3438 98.4844,176.3438 C98.1875,176.3438 97.9844,176.4375 97.7656,176.75 L97.5938,176.6719 Z " fill="#000000"/><text fill="#000000" font-family="sans-serif" font-size="14" lengthAdjust="spacing" textLength="107" x="115.75" y="185.8467">LimpiezaDatos</text><line style="stroke:#181818;stroke-width:0.5;" x1="8" x2="298" y1="197" y2="197"/><rect fill="none" height="6" style="stroke:#C82930;stroke-width:1.0;" width="6" x="15" y="207.6484"/><text fill="#000000" font-family="sans-serif" font-size="14" lengthAdjust="spacing" textLength="127" x="27" y="213.9951">df: pd.DataFrame</text><line style="stroke:#181818;stroke-width:0.5;" x1="8" x2="298" y1="221.2969" y2="221.2969"/><ellipse cx="18" cy="234.9453" fill="#84BE84" rx="3" ry="3" style="stroke:#038048;stroke-width:1.0;"/><text fill="#000000" font-family="sans-serif" font-size="14" lengthAdjust="spacing" textLength="49" x="27" y="238.292">copia()</text><ellipse cx="18" cy="251.2422" fill="#84BE84" rx="3" ry="3" style="stroke:#038048;stroke-width:1.0;"/><text fill="#000000" font-family="sans-serif" font-size="14" lengthAdjust="spacing" textLength="227" x="27" y="254.5889">limpieza_nulos(): pd.DataFrame</text><ellipse cx="18" cy="267.5391" fill="#84BE84" rx="3" ry="3" style="stroke:#038048;stroke-width:1.0;"/><text fill="#000000" font-family="sans-serif" font-size="14" lengthAdjust="spacing" textLength="266" x="27" y="270.8857">limpieza_duplicados(): pd.DataFrame</text><ellipse cx="18" cy="283.8359" fill="#84BE84" rx="3" ry="3" style="stroke:#038048;stroke-width:1.0;"/><text fill="#000000" font-family="sans-serif" font-size="14" lengthAdjust="spacing" textLength="135" x="27" y="287.1826">limpieza_atipicos()</text><ellipse cx="18" cy="300.1328" fill="#84BE84" rx="3" ry="3" style="stroke:#038048;stroke-width:1.0;"/><text fill="#000000" font-family="sans-serif" font-size="14" lengthAdjust="spacing" textLength="64" x="27" y="303.4795">guardar()</text></g><!--link LecturaDatos to LimpiezaDatos--><g id="link_LecturaDatos_LimpiezaDatos"><path codeLine="15" d="M153,88.016 C153,110.255 153,120.716 153,146.793 " fill="none" id="LecturaDatos-to-LimpiezaDatos" style="stroke:#181818;stroke-width:1.0;"/><polygon fill="none" points="153,164.793,159,146.793,147,146.793,153,164.793" style="stroke:#181818;stroke-width:1.0;"/><text fill="#000000" font-family="sans-serif" font-size="13" lengthAdjust="spacing" textLength="45" x="154" y="131.0669">hereda</text></g><!--SRC=[XOyz3i8m34RtdC9ZAnGEa849CN67oh8DH4ffv2GC_DoTjB2a36p-FZq_sHGm9JWAvQAunpmbU1W02vHk3bBM6ZQWWZpKfkiTHDvM3W-AevYNCVGn-35wkJSAFgteMKLJzDZrono-IyErX2dzo1k4ImoUaFznc7tqD5DBVoweZ5fJFRLvqzhdRdMsWukeCBu1]--></g></svg>